<svg xmlns="http://www.w3.org/2000/svg" width="40" height="25" viewBox="0 0 750 471" preserveAspectRatio="xMidYMid">
  <rect fill="#0E4595" width="750" height="471" rx="40" />
  <polygon fill="#FFFFFF" points="278.2,334.2 311.6,138.5 364.9,138.5 331.5,334.2" />
  <path fill="#FFFFFF" d="M524.3,142.7c-10.6-4-27.1-8.3-47.8-8.3-52.7,0-89.9,26.5-90.2,64.6-0.3,28.1,26.5,43.8,46.8,53.2,20.8,9.6,27.8,15.6,27.7,24.2-0.1,13.1-16.6,19.1-31.9,19.1-21.4,0-32.8-3.2-50.3-10.3l-6.9-3.1-7.5,43.8c12.5,5.5,35.6,10.3,59.6,10.5,56.1,0,92.6-26.2,93-66.9 0.2-22.3-14.2-39.2-45-53.3-18.7-8.7-30.1-14.8-30-24.0 0-8.1 9.7-16.9 30-16.9 17.5,0 30.3,3.7 39.7,7.8l4.8,2.3 7.2-42.4z" />
  <path fill="#FFFFFF" d="M661.6,138.5h-41.2c-12.8,0-22.4,3.5-28,16L513.2,334.1h56l11.2-29.4h69.4l5.3,29.4H705L661.6,138.5zM596.2,264.9l21.3-54.8 6.7-18.7 6.4,18.7 14.3,54.8h-48.7z" />
  <path fill="#FFFFFF" d="M45.9,138.5l-0.7,4.1c20.9,5.1,39.7,12.5,56.4,21.6l47.4,169.4h56.5l84-195.4H232.9L180.7,272l-5.6-27.1-18.2-87.3c-3.2-12.4-12.6-16.4-24.2-16.4H45.9z" />
</svg>
